# xmcd CD database file
#
# Track frame offsets:
#	150
#	20247
#	40645
#	55732
#
# Disc length: 1179 seconds
#
# Revision: 1
# Processed by: cddbd v1.5PL3 Copyright (c) Steve Scherf et al.
# Submitted via: CDex 1.51
#
DISCID=2b049904
DTITLE=ソウル・フラワー・ユニオン - 宇宙フーテン・スイング
DYEAR=1997
DGENRE=Rock
TTITLE0=宇宙フーテン･スイング
TTITLE1=さよならだけの路地裏
TTITLE2=ちっちゃな時から
TTITLE3=もぐらとまつり
EXTD=YEAR: 1997
EXTT0=
EXTT1=
EXTT2=
EXTT3=
PLAYORDER=
